<svg width="524" height="328" viewBox="0 0 524 328" fill="none" xmlns="http://www.w3.org/2000/svg">
<path d="M336.276 267.942L438.276 306.442L478.776 287.442L489.276 37.9418L336.276 30.4418V267.942Z" fill="#BF7C8C"/>
<path d="M162.876 243.085L357.891 228.031V43.842L321.625 35.0694L162.876 54.2287V243.085Z" fill="#BF7C8C"/>
<path d="M489.276 298.942V29.9418L437.776 34.9418V307.442L489.276 298.942Z" fill="#D48A9B"/>
<path d="M506.276 101.942V90.9418L415.276 70.4418H268.776H169.776V90.9418L246.276 119.942L506.276 101.942Z" fill="#D48A9B"/>
<path d="M248.276 109.442L180.276 84.4418L146.776 62.9418L401.276 46.4418L509.776 91.9418L248.276 109.442Z" fill="#EFC6CD"/>
<path d="M27.8037 273.98L124.031 327.055L164.531 308.055L175.031 58.5553L27.8037 34.9796V273.98Z" fill="#BF7C8C"/>
<path d="M189.276 315.442V46.4418L122.611 54.5553V327.055L189.276 315.442Z" fill="#D48A9B"/>
<path d="M520.96 42.6816V31.1816L467.276 22.4418L115.972 50.4418L39.4722 28.9418L2.6875 22.2192V33.7159L104.472 71.9418L520.96 42.6816Z" fill="#D48A9B"/>
<path d="M0.875 20.5903L397.124 0.433365L523.124 30.4334L101.793 58.262L0.875 20.5903Z" fill="#EFC6CD"/>
</svg>
