<svg width="244" height="204" viewBox="0 0 244 204" fill="none" xmlns="http://www.w3.org/2000/svg">
<path d="M103.666 188.731V152.731L142.176 144.809V186.491C142.176 186.491 161.847 188.251 161.847 193.19C161.847 198.129 149.553 202.411 127.091 203.593C104.63 204.775 83.3759 202.713 85.1386 197.426C86.9013 192.138 103.666 188.731 103.666 188.731Z" fill="#3A3768"/>
<path d="M8.12132 168.977L236.583 154.695C240.272 154.464 243.147 151.405 243.147 147.708V8.07266C243.147 4.03487 239.74 0.834373 235.71 1.0863L7.24783 15.3684C3.55862 15.599 0.68457 18.6583 0.68457 22.3547V161.99C0.68457 166.028 4.0914 169.229 8.12132 168.977Z" fill="#3A3768"/>
<path d="M10.9477 155.608L234.448 142.821C236.035 142.73 237.276 141.416 237.276 139.826V22.6183C237.276 20.8941 235.826 19.5247 234.105 19.6232L10.605 32.4097C9.01732 32.5005 7.77637 33.8145 7.77637 35.4048V152.613C7.77637 154.337 9.22632 155.706 10.9477 155.608Z" fill="#6C63FF"/>
</svg>
