<svg width="215" height="44" viewBox="0 0 215 44" fill="none" xmlns="http://www.w3.org/2000/svg">
<path d="M0.682284 22.4511L0.256836 14.6652L6.12777 16.961C6.47302 17.096 6.79025 17.2938 7.0634 17.5444L25.8948 34.8223C26.4829 35.3619 27.2618 35.6449 28.0592 35.6086L114.844 31.6652L203.673 25.2144C204.119 25.182 204.566 25.2497 204.983 25.4126L210.744 27.6652L204.991 31.2647C204.57 31.5276 204.091 31.6823 203.597 31.7149L23.6742 43.5804C22.8527 43.6346 22.0451 43.3488 21.4405 42.79L1.64156 24.4906C1.0689 23.9613 0.724832 23.2298 0.682284 22.4511Z" fill="black" fill-opacity="0.12"/>
<path d="M1.20723 21.2149L0.775391 13.4417L6.75576 15.7419C7.09925 15.874 7.4155 16.0682 7.68871 16.3147L26.8614 33.6169C27.447 34.1454 28.2172 34.422 29.0053 34.3868L117.275 30.4417L207.609 23.9894C208.048 23.958 208.488 24.0237 208.899 24.1817L214.775 26.4417L208.91 30.0512C208.493 30.3077 208.02 30.4583 207.532 30.49L24.5457 42.3593C23.7339 42.412 22.9354 42.1327 22.3335 41.5855L2.18459 23.2683C1.60195 22.7386 1.25091 22.0011 1.20723 21.2149Z" fill="#3A3768"/>
<path d="M25.2754 38.9417L0.775391 13.4417L187.275 1.94174L214.775 26.4417L25.2754 38.9417Z" fill="#3A3768"/>
<path d="M16.9521 14.1885L13.2639 10.8874L5.77539 11.302L5.99653 15.2959L9.65704 18.0978L17.1456 17.6832L16.9521 14.1885Z" fill="#6C63FF"/>
<path d="M26.4374 13.6633L22.7493 10.3622L15.2607 10.7768L15.4819 14.7707L19.1424 17.5726L26.6309 17.158L26.4374 13.6633Z" fill="#6C63FF"/>
<path d="M35.9228 13.1381L32.2346 9.83695L24.7461 10.2516L24.9672 14.2455L28.6277 17.0474L36.1163 16.6327L35.9228 13.1381Z" fill="#6C63FF"/>
<path d="M45.4081 12.6129L41.72 9.31173L34.2314 9.72638L34.4526 13.7203L38.1131 16.5222L45.6016 16.1075L45.4081 12.6129Z" fill="#6C63FF"/>
<path d="M54.8935 12.0877L51.2053 8.78652L43.7168 9.20116L43.9379 13.195L47.5984 15.997L55.087 15.5823L54.8935 12.0877Z" fill="#6C63FF"/>
<path d="M64.3798 11.5625L60.6917 8.26131L53.2031 8.67595L53.4243 12.6698L57.0848 15.4717L64.5733 15.0571L64.3798 11.5625Z" fill="#6C63FF"/>
<path d="M73.8642 11.0372L70.176 7.7361L62.6875 8.15074L62.9086 12.1446L66.5691 14.9465L74.0577 14.5319L73.8642 11.0372Z" fill="#6C63FF"/>
<path d="M83.3505 10.512L79.6624 7.21088L72.1738 7.62552L72.395 11.6194L76.0555 14.4213L83.544 14.0067L83.3505 10.512Z" fill="#6C63FF"/>
<path d="M92.8359 9.98681L89.1477 6.68567L81.6592 7.10031L81.8803 11.0942L85.5408 13.8961L93.0294 13.4815L92.8359 9.98681Z" fill="#6C63FF"/>
<path d="M102.321 9.4616L98.6331 6.16045L91.1445 6.5751L91.3657 10.569L95.0262 13.3709L102.515 12.9562L102.321 9.4616Z" fill="#6C63FF"/>
<path d="M111.807 8.93639L108.118 5.63524L100.63 6.04988L100.851 10.0438L104.512 12.8457L112 12.431L111.807 8.93639Z" fill="#6C63FF"/>
<path d="M21.6943 18.4329L18.0061 15.1317L10.5176 15.5464L10.7387 19.5402L14.3992 22.3421L21.8878 21.9275L21.6943 18.4329Z" fill="#6C63FF"/>
<path d="M31.1786 17.9076L27.4905 14.6065L20.002 15.0211L20.2231 19.015L23.8836 21.8169L31.3721 21.4023L31.1786 17.9076Z" fill="#6C63FF"/>
<path d="M40.665 17.3824L36.9768 14.0813L29.4883 14.4959L29.7094 18.4898L33.3699 21.2917L40.8585 20.8771L40.665 17.3824Z" fill="#6C63FF"/>
<path d="M50.1503 16.8572L46.4622 13.5561L38.9736 13.9707L39.1948 17.9646L42.8553 20.7665L50.3438 20.3519L50.1503 16.8572Z" fill="#6C63FF"/>
<path d="M59.6357 16.332L55.9475 13.0309L48.459 13.4455L48.6801 17.4394L52.3406 20.2413L59.8292 19.8266L59.6357 16.332Z" fill="#6C63FF"/>
<path d="M69.121 15.8068L65.4329 12.5056L57.9443 12.9203L58.1655 16.9142L61.826 19.7161L69.3145 19.3014L69.121 15.8068Z" fill="#6C63FF"/>
<path d="M78.6064 15.2816L74.9182 11.9804L67.4297 12.3951L67.6508 16.3889L71.3113 19.1909L78.7999 18.7762L78.6064 15.2816Z" fill="#6C63FF"/>
<path d="M88.0927 14.7564L84.4045 11.4552L76.916 11.8699L77.1372 15.8637L80.7977 18.6656L88.2862 18.251L88.0927 14.7564Z" fill="#6C63FF"/>
<path d="M97.5771 14.2311L93.8889 10.93L86.4004 11.3446L86.6215 15.3385L90.282 18.1404L97.7706 17.7258L97.5771 14.2311Z" fill="#6C63FF"/>
<path d="M107.063 13.7059L103.375 10.4048L95.8867 10.8194L96.1079 14.8133L99.7684 17.6152L107.257 17.2006L107.063 13.7059Z" fill="#6C63FF"/>
<path d="M116.548 13.1807L112.86 9.87957L105.371 10.2942L105.592 14.2881L109.253 17.09L116.741 16.6754L116.548 13.1807Z" fill="#6C63FF"/>
<path d="M127.952 6.98681L124.264 3.68567L116.775 4.10031L116.997 8.09419L120.657 10.8961L128.146 10.4815L127.952 6.98681Z" fill="#6C63FF"/>
<path d="M137.437 6.4616L133.749 3.16045L126.261 3.5751L126.482 7.56898L130.142 10.3709L137.631 9.95625L137.437 6.4616Z" fill="#6C63FF"/>
<path d="M146.923 5.93639L143.235 2.63524L135.746 3.04988L135.967 7.04377L139.628 9.84568L147.116 9.43103L146.923 5.93639Z" fill="#6C63FF"/>
<path d="M132.694 11.2311L129.006 7.93L121.518 8.34464L121.739 12.3385L125.399 15.1404L132.888 14.7258L132.694 11.2311Z" fill="#6C63FF"/>
<path d="M142.179 10.7059L138.49 7.40479L131.002 7.81943L131.223 11.8133L134.884 14.6152L142.372 14.2006L142.179 10.7059Z" fill="#6C63FF"/>
<path d="M151.665 10.1807L147.977 6.87957L140.488 7.29421L140.709 11.2881L144.37 14.09L151.858 13.6754L151.665 10.1807Z" fill="#6C63FF"/>
<path d="M26.4355 22.6772L22.7473 19.376L15.2588 19.7907L15.4799 23.7846L19.1404 26.5865L26.629 26.1718L26.4355 22.6772Z" fill="#6C63FF"/>
<path d="M35.9208 22.152L32.2327 18.8508L24.7441 19.2655L24.9653 23.2594L28.6258 26.0613L36.1143 25.6466L35.9208 22.152Z" fill="#6C63FF"/>
<path d="M45.4071 21.6268L41.719 18.3256L34.2305 18.7403L34.4516 22.7341L38.1121 25.5361L45.6006 25.1214L45.4071 21.6268Z" fill="#6C63FF"/>
<path d="M54.8915 21.1015L51.2034 17.8004L43.7148 18.215L43.936 22.2089L47.5965 25.0108L55.085 24.5962L54.8915 21.1015Z" fill="#6C63FF"/>
<path d="M64.3778 20.5763L60.6897 17.2752L53.2012 17.6898L53.4223 21.6837L57.0828 24.4856L64.5713 24.071L64.3778 20.5763Z" fill="#6C63FF"/>
<path d="M73.8632 20.0511L70.1751 16.75L62.6865 17.1646L62.9077 21.1585L66.5682 23.9604L74.0567 23.5458L73.8632 20.0511Z" fill="#6C63FF"/>
<path d="M83.3486 19.5259L79.6604 16.2248L72.1719 16.6394L72.393 20.6333L76.0535 23.4352L83.5421 23.0206L83.3486 19.5259Z" fill="#6C63FF"/>
<path d="M92.8339 19.0007L89.1458 15.6995L81.6572 16.1142L81.8784 20.1081L85.5389 22.91L93.0274 22.4953L92.8339 19.0007Z" fill="#6C63FF"/>
<path d="M102.319 18.4755L98.6311 15.1743L91.1426 15.589L91.3637 19.5829L95.0242 22.3848L102.513 21.9701L102.319 18.4755Z" fill="#6C63FF"/>
<path d="M111.806 17.9503L108.117 14.6491L100.629 15.0638L100.85 19.0576L104.511 21.8596L111.999 21.4449L111.806 17.9503Z" fill="#6C63FF"/>
<path d="M121.29 17.425L117.602 14.1239L110.113 14.5385L110.334 18.5324L113.995 21.3343L121.483 20.9197L121.29 17.425Z" fill="#6C63FF"/>
<path d="M31.1777 26.9215L27.4895 23.6204L20.001 24.035L20.2221 28.0289L23.8826 30.8308L31.3712 30.4162L31.1777 26.9215Z" fill="#6C63FF"/>
<path d="M40.663 26.3963L36.9749 23.0952L29.4863 23.5098L29.7075 27.5037L33.368 30.3056L40.8565 29.891L40.663 26.3963Z" fill="#6C63FF"/>
<path d="M50.1484 25.8711L46.4602 22.57L38.9717 22.9846L39.1928 26.9785L42.8533 29.7804L50.3419 29.3657L50.1484 25.8711Z" fill="#6C63FF"/>
<path d="M59.6337 25.3459L55.9456 22.0447L48.457 22.4594L48.6782 26.4533L52.3387 29.2552L59.8272 28.8405L59.6337 25.3459Z" fill="#6C63FF"/>
<path d="M69.12 24.8207L65.4319 21.5195L57.9434 21.9342L58.1645 25.9281L61.825 28.73L69.3135 28.3153L69.12 24.8207Z" fill="#6C63FF"/>
<path d="M78.6044 24.2955L74.9163 20.9943L67.4277 21.409L67.6489 25.4028L71.3094 28.2047L78.7979 27.7901L78.6044 24.2955Z" fill="#6C63FF"/>
<path d="M88.0907 23.7702L84.4026 20.4691L76.9141 20.8837L77.1352 24.8776L80.7957 27.6795L88.2842 27.2649L88.0907 23.7702Z" fill="#6C63FF"/>
<path d="M97.5761 23.245L93.8879 19.9439L86.3994 20.3585L86.6206 24.3524L90.2811 27.1543L97.7696 26.7397L97.5761 23.245Z" fill="#6C63FF"/>
<path d="M107.061 22.7198L103.373 19.4187L95.8848 19.8333L96.1059 23.8272L99.7664 26.6291L107.255 26.2145L107.061 22.7198Z" fill="#6C63FF"/>
<path d="M116.547 22.1946L112.859 18.8935L105.37 19.3081L105.591 23.302L109.252 26.1039L116.74 25.6892L116.547 22.1946Z" fill="#6C63FF"/>
<path d="M126.032 21.6694L122.344 18.3682L114.855 18.7829L115.077 22.7768L118.737 25.5787L126.226 25.164L126.032 21.6694Z" fill="#6C63FF"/>
<path d="M160.952 5.51203L157.264 2.21088L149.775 2.62553L149.997 6.61941L153.657 9.42132L161.146 9.00668L160.952 5.51203Z" fill="#6C63FF"/>
<path d="M170.438 4.98682L166.75 1.68567L159.262 2.10031L159.483 6.0942L163.143 8.89611L170.632 8.48147L170.438 4.98682Z" fill="#6C63FF"/>
<path d="M179.923 4.4616L176.235 1.16046L168.746 1.5751L168.967 5.56898L172.628 8.37089L180.116 7.95625L179.923 4.4616Z" fill="#6C63FF"/>
<path d="M189.409 3.93639L185.721 0.635242L178.232 1.04988L178.454 5.04377L182.114 7.84568L189.603 7.43104L189.409 3.93639Z" fill="#6C63FF"/>
<path d="M165.694 9.75636L162.006 6.45522L154.518 6.86986L154.739 10.8637L158.399 13.6657L165.888 13.251L165.694 9.75636Z" fill="#6C63FF"/>
<path d="M175.18 9.23115L171.491 5.93L164.003 6.34465L164.224 10.3385L167.885 13.1404L175.373 12.7258L175.18 9.23115Z" fill="#6C63FF"/>
<path d="M184.665 8.70594L180.977 5.40479L173.488 5.81943L173.709 9.81331L177.37 12.6152L184.858 12.2006L184.665 8.70594Z" fill="#6C63FF"/>
<path d="M194.15 8.18072L190.462 4.87957L182.974 5.29422L183.195 9.2881L186.855 12.09L194.344 11.6754L194.15 8.18072Z" fill="#6C63FF"/>
<path d="M170.436 14.0007L166.748 10.6995L159.26 11.1142L159.481 15.1081L163.141 17.91L170.63 17.4953L170.436 14.0007Z" fill="#6C63FF"/>
<path d="M179.921 13.4755L176.233 10.1743L168.744 10.589L168.965 14.5829L172.626 17.3848L180.114 16.9701L179.921 13.4755Z" fill="#6C63FF"/>
<path d="M189.407 12.9503L185.719 9.64912L178.23 10.0638L178.452 14.0576L182.112 16.8596L189.601 16.4449L189.407 12.9503Z" fill="#6C63FF"/>
<path d="M198.892 12.4251L195.204 9.12391L187.716 9.53855L187.937 13.5324L191.597 16.3343L199.086 15.9197L198.892 12.4251Z" fill="#6C63FF"/>
<path d="M175.179 18.245L171.49 14.9439L164.002 15.3585L164.223 19.3524L167.884 22.1543L175.372 21.7397L175.179 18.245Z" fill="#6C63FF"/>
<path d="M184.663 17.7198L180.975 14.4187L173.486 14.8333L173.707 18.8272L177.368 21.6291L184.857 21.2145L184.663 17.7198Z" fill="#6C63FF"/>
<path d="M194.149 17.1946L190.461 13.8935L182.973 14.3081L183.194 18.302L186.854 21.1039L194.343 20.6892L194.149 17.1946Z" fill="#6C63FF"/>
<path d="M203.634 16.6694L199.946 13.3682L192.457 13.7829L192.678 17.7768L196.339 20.5787L203.827 20.164L203.634 16.6694Z" fill="#6C63FF"/>
<path d="M146.696 15.9364L143.008 12.6352L135.52 13.0499L135.741 17.0438L139.401 19.8457L146.89 19.431L146.696 15.9364Z" fill="#6C63FF"/>
<path d="M141.952 20.7059L138.264 17.4048L130.775 17.8194L130.997 21.8133L134.657 24.6152L142.146 24.2006L141.952 20.7059Z" fill="#6C63FF"/>
<path d="M151.437 20.1807L147.749 16.8796L140.261 17.2942L140.482 21.2881L144.142 24.09L151.631 23.6754L151.437 20.1807Z" fill="#6C63FF"/>
<path d="M160.923 19.6555L157.235 16.3544L149.746 16.769L149.967 20.7629L153.628 23.5648L161.116 23.1502L160.923 19.6555Z" fill="#6C63FF"/>
</svg>
