<svg width="48" height="21" viewBox="0 0 48 21" fill="none" xmlns="http://www.w3.org/2000/svg">
<path d="M36.2201 10.978L28.7613 6.80618C22.1617 3.11487 14.2083 2.74976 7.29827 5.8209L6.57993 6.14016C3.77225 7.38802 3.36135 11.2041 5.83903 13.021L14.0815 19.0655C14.8525 19.6309 15.8005 19.9014 16.7537 19.8281L34.5742 18.4573C38.5228 18.1536 39.6764 12.9112 36.2201 10.978Z" fill="#6C63FF"/>
<path d="M17.7764 14.9417C24.2762 15.9417 38.2762 13.9417 38.2762 13.9417C38.2762 13.9417 38.776 16.4417 36.2762 17.9417C33.7764 19.4417 18.7762 20.9417 16.7764 20.4417C14.7766 19.9417 7.13362 15.5457 5.13362 12.5457C3.13362 9.54572 4.93282 7.48329 4.93282 7.48329C4.93282 7.48329 11.2766 13.9417 17.7764 14.9417Z" fill="#3A3768"/>
</svg>
