<svg width="50" height="47" viewBox="0 0 50 47" fill="none" xmlns="http://www.w3.org/2000/svg">
<path d="M0.326115 39.7273C0.557213 44.9896 14.609 46.7566 21.6025 46.3284C32.6372 45.6528 36.5783 41.5993 37.3664 37.7709C38.1545 33.9426 30.4629 29.6068 19.6014 29.6068C8.73992 29.6068 0.0950165 34.4651 0.326115 39.7273Z" fill="black" fill-opacity="0.15"/>
<path d="M0.192303 37.9063C0.413185 43.1685 8.23422 45.0094 18.6156 45.0094C28.997 45.0094 37.7426 40.1326 37.4128 34.8318C37.0831 29.5309 28.997 27.7857 18.6156 27.7857C8.23422 27.7857 -0.0285835 32.644 0.192303 37.9063Z" fill="#6C63FF"/>
<path d="M37.3623 34.3448V7.1824L17.0051 3.62011L0.188217 11.19V37.4618H18.3327L37.3623 34.3448Z" fill="#6C63FF"/>
<path d="M39.297 14.5967C36.4458 14.5967 33.0541 16.8884 33.0541 16.8884V18.5042C33.0541 18.5042 35.1471 17.4509 36.8579 17.4509C38.5687 17.4509 43.9556 17.2129 44.5258 23.1375C45.0961 29.062 39.3266 33.2869 38.1861 33.8255L35.9495 33.2925L33.0541 34.1234V36.2778C33.0541 36.2778 36.0946 37.355 38.1861 37.0773C40.2776 36.7997 48.0926 30.0651 48.6628 23.602C49.233 17.1389 42.1481 14.5967 39.297 14.5967Z" fill="#6C63FF"/>
<path d="M0.192303 10.2216C0.413189 15.4838 8.23422 17.3247 18.6156 17.3247C28.997 17.3247 37.7426 12.4479 37.4128 7.14708C37.0831 1.84625 28.997 0.101044 18.6156 0.101044C8.23422 0.101044 -0.0285835 4.95933 0.192303 10.2216Z" fill="#6C63FF"/>
<path d="M3.70987 9.4962C3.88901 13.7639 10.2319 15.2569 18.6513 15.2569C27.0707 15.2569 34.1634 11.3018 33.896 7.00276C33.6286 2.70376 27.0707 1.59538 18.6513 1.59538C10.2319 1.59538 3.53073 5.22849 3.70987 9.4962Z" fill="#3A3768"/>
</svg>
