<svg width="82" height="21" viewBox="0 0 82 21" fill="none" xmlns="http://www.w3.org/2000/svg">
<path opacity="0.1" d="M32.7813 2.3718L0.611328 4.48181L53.9213 20.4418L81.0713 18.4718L32.7813 2.3718Z" fill="black"/>
<path d="M32.7813 0.971771L0.611328 3.08176L53.9213 19.0318L81.0713 17.0718L32.7813 0.971771Z" fill="white"/>
<path d="M36.6309 4.58177C35.3609 4.04177 34.0109 5.06179 32.6309 5.32179C31.8609 5.47179 31.0609 5.32179 30.2909 5.47179C28.7109 5.68179 27.1409 6.74177 25.6409 6.20177" fill="#D3DAE1"/>
<path d="M38.291 5.55172C37.031 5.00172 35.671 6.02173 34.291 6.28173C33.521 6.43173 32.721 6.28173 31.941 6.43173C30.361 6.64173 28.801 7.70174 27.301 7.16174" fill="#D3DAE1"/>
<path d="M42.0918 7.47179C40.8218 6.93179 39.4618 7.95178 38.0918 8.21178C37.3218 8.36178 36.5218 8.21177 35.7418 8.36177C34.1618 8.57177 32.6018 9.63179 31.1018 9.09179" fill="#D3DAE1"/>
</svg>
